<svg width="938" height="538" viewBox="0 0 938 538" fill="none" xmlns="http://www.w3.org/2000/svg">
<rect width="17.5712" height="34.5392" transform="matrix(0.840096 0.542438 -0.568727 0.822527 110.328 41.0527)" fill="#D4CFF5" fill-opacity="0.4"/>
<rect width="17.7097" height="34.2575" transform="matrix(0.964461 -0.264226 0.281511 0.959558 551.738 61.5234)" fill="#D4CFF5" fill-opacity="0.4"/>
<rect width="17.573" height="34.5355" transform="matrix(0.841901 0.539631 -0.565905 0.82447 603.199 75.3105)" fill="#ED9E49" fill-opacity="0.4"/>
<rect width="17.5751" height="34.5312" transform="matrix(0.843929 -0.536455 0.56271 0.826654 446.619 9.42773)" fill="#F5C591" fill-opacity="0.4"/>
<rect x="338.232" y="159.791" width="17.156" height="35.3574" transform="rotate(-90 338.232 159.791)" fill="#FADFC2" fill-opacity="0.4"/>
<rect width="17.569" height="34.5435" transform="matrix(-0.837996 -0.545675 0.57198 -0.820268 46.3127 316.877)" fill="#8E8AF9" fill-opacity="0.4"/>
<path d="M156.748 400.633L140.017 394.896L151.84 362.695L168.572 368.432L156.748 400.633Z" fill="#726FFB" fill-opacity="0.4"/>
<rect width="17.1565" height="35.3564" transform="matrix(-0.0303165 -0.99954 0.999599 -0.0283121 98.0139 339.738)" fill="#ED9E49" fill-opacity="0.4"/>
<rect width="17.5953" height="34.4904" transform="matrix(-0.863288 -0.504711 0.530648 -0.847592 273.902 490.76)" fill="#E1CFF5" fill-opacity="0.4"/>
<rect width="17.5691" height="34.5434" transform="matrix(-0.838061 0.545576 -0.57188 -0.820337 202.776 146.234)" fill="#C3A5F7" fill-opacity="0.4"/>
<rect width="17.5658" height="34.5501" transform="matrix(-0.834798 -0.550557 0.576879 -0.816829 881.215 278.951)" fill="#D4CFF5" fill-opacity="0.4"/>
<rect width="17.5658" height="34.5501" transform="matrix(-0.834798 -0.550557 0.576879 -0.816829 866.512 412.113)" fill="#726FFB" fill-opacity="0.4"/>
<rect width="17.3525" height="34.975" transform="matrix(-0.583413 0.812175 -0.830462 -0.557075 935.678 388.441)" fill="#F3BC81" fill-opacity="0.4"/>
<rect width="17.5607" height="34.5604" transform="matrix(-0.829747 0.55814 -0.58448 -0.811408 921.213 458.121)" fill="#C7ABF7" fill-opacity="0.4"/>
<rect width="17.5313" height="34.6196" transform="matrix(-0.800045 0.59994 -0.62613 -0.779718 712.355 487.533)" fill="#F0AB61" fill-opacity="0.4"/>
<rect width="17.1684" height="35.3336" transform="matrix(-0.147648 0.98904 -0.990422 -0.138071 657.898 473.4)" fill="#726FFB" fill-opacity="0.4"/>
<rect width="17.1918" height="35.2883" transform="matrix(-0.250918 0.968008 -0.971932 -0.235264 72.9241 65.6699)" fill="#9B6EFB" fill-opacity="0.4"/>
<rect width="17.5438" height="34.5944" transform="matrix(0.812873 0.582441 -0.608746 0.793365 341.316 132.109)" fill="#AF89F9" fill-opacity="0.4"/>
<rect width="17.191" height="35.2898" transform="matrix(0.248105 0.968733 -0.972571 0.232605 85.6292 112.484)" fill="#EB9130" fill-opacity="0.4"/>
<rect width="17.5753" height="34.531" transform="matrix(0.844058 0.536253 -0.562506 0.826793 100.033 478.961)" fill="#B8B4F6" fill-opacity="0.4"/>
<rect width="17.3043" height="35.0697" transform="matrix(0.507799 0.861475 -0.87605 0.48222 30.7229 505.805)" fill="#F3BC81" fill-opacity="0.4"/>
<rect width="17.7525" height="34.1695" transform="matrix(-0.999248 0.038778 -0.0415212 -0.999138 795.316 56.5762)" fill="#D4CFF5" fill-opacity="0.4"/>
<rect width="17.7525" height="34.1695" transform="matrix(-0.999248 0.038778 -0.0415212 -0.999138 865.697 171.938)" fill="#726FFB" fill-opacity="0.4"/>
<rect width="17.1566" height="35.3562" transform="matrix(0.0333232 0.999445 -0.999516 0.0311204 906.607 113.072)" fill="#F3BC81" fill-opacity="0.4"/>
<rect width="17.2174" height="35.2389" transform="matrix(-0.327976 0.944686 -0.951256 -0.308403 938.002 177.342)" fill="#C7ABF7" fill-opacity="0.4"/>
<rect width="17.5658" height="34.5501" transform="matrix(-0.795294 0.606224 -0.580573 -0.814208 442.824 355.15)" fill="#D4CFF5" fill-opacity="0.4"/>
<rect width="17.5658" height="34.5501" transform="matrix(-0.795294 0.606224 -0.580573 -0.814208 632.025 335.891)" fill="#726FFB" fill-opacity="0.4"/>
<rect width="17.3525" height="34.975" transform="matrix(0.574023 0.818839 -0.800015 0.59998 632.516 262.787)" fill="#F3BC81" fill-opacity="0.4"/>
<rect width="17.5607" height="34.5604" transform="matrix(0.252905 0.967491 -0.958877 0.283823 693.512 299.445)" fill="#C7ABF7" fill-opacity="0.4"/>
<rect width="17.7525" height="34.1695" transform="matrix(-0.293296 0.956021 -0.956823 -0.290671 336.688 334.467)" fill="#726FFB" fill-opacity="0.4"/>
<rect width="17.1566" height="35.3562" transform="matrix(0.954406 0.29851 -0.300613 0.953746 294.629 276.416)" fill="#F3BC81" fill-opacity="0.4"/>
<rect width="17.2174" height="35.2389" transform="matrix(0.783436 0.621472 -0.605166 0.796099 365.66 268)" fill="#C7ABF7" fill-opacity="0.4"/>
</svg>
